---------------------------------------------------
AVC (Advanced Video Coding) H264
High Efficiency Dolby Digital Surround
---------------------------------------------------

IMDB 
http://www.imdb.com/title/tt1262406/

SAMPLE and SNAPSHOTS are included

Plot Summary: Jacob sets out to get Sarah home safely, running through streets, fields, churches and underground tunnels, while being pursued by hordes of demonic creatures. Along the way, both come to terms with the demons within themselves - Sarah begins to understand her hatred towards her mother and sister may be unjustified and Jacob discovers the secrets of his past, realizing the only way to truly defeat the demons is to return to the very place his family was murdered. 


MEDIA INFO

Video
ID                               : 1
Format                           : AVC
Format/Info                      : Advanced Video Codec
Codec ID/Info                    : Advanced Video Coding
Duration                         : 1h 33mn
Bit rate mode                    : Variable
Bit rate                         : 1 000 Kbps
Width                            : 720 pixels
Height                           : 304 pixels
Display aspect ratio             : 2.35:1
Original display aspect ratio    : 2.35:1
Frame rate mode                  : Variable
Frame rate                       : 24.000 fps
Minimum frame rate               : 23.810 fps
Maximum frame rate               : 1 000.000 fps
Scan type                        : Progressive
Stream size                      : 667 MiB (83%)
Writing library                  : x264 core 112

Audio
ID                               : 2
Format                           : AAC
Format/Info                      : Advanced Audio Codec
Format profile                   : High Efficiency
Duration                         : 1h 33mn
Bit rate mode                    : Variable
Bit rate                         : 192 Kbps
Maximum bit rate                 : 298 Kbps
Channel(s)                       : 6 channels
Channel positions                : Front: L C R,Side: L R, LFE
Sampling rate                    : 48.0 KHz
Compression mode                 : Lossy
Stream size                      : 128 MiB (16%)
